# xmcd
#
# Track frame offsets:
#	150
#	12332
#	35405
#	53271
#	85151
#	97221
#	109334
#	122262
#	135112
#	156024
#	170059
#	182256
#	201945
#	226664
#	246498
#	264117
#	275420
#	292426
#	306045
#	323238
#
# Disc length: 4545
#
# Revision: 1
# Processed by: cddbd v1.5.1PL0 Copyright (c) Steve Scherf et al.
# Submitted via: CDex 1.50beta10
# Normalized: r0:DSETVAR1,TDELIM( - )
#
DISCID=0b11bf14
DTITLE=Various Artist - 60 Blues Guitar Greats Disc 1
DYEAR=1900
DGENRE=Blues
TTITLE0=Muddy Waters - I Can't Be Satisfied
TTITLE1=Johnny Copeland - Rock Me Baby
TTITLE2=John Mayall's Bluesbreakers - Telephone Blues
TTITLE3=Freddie King - I'm Tore Down
TTITLE4=Ike Turner - Prancin'
TTITLE5=Houng Dog Taylor - My Baby's Coming Home
TTITLE6=Big Bill Broozy - Mindin' My Own Busines
TTITLE7=Tommy Tucker - Hi-Heel Sneekers
TTITLE8=David 'Honeyboy' Edwards - Bad Whiskey and Cocaine
TTITLE9=Pee Wee Grayton - Texas Hop
TTITLE10=Howling Wolf and Willie Johnson - How Many More Years
TTITLE11=Fenton Robinson - You Don't Know What love Is
TTITLE12=Alexis Korner and Keith Richard - Get Off My Cloud
TTITLE13=Luther Allison - Messin' With The kid
TTITLE14=Lacy Gibson - You Better Be Sure
TTITLE15=Lightnin' Hopkins - Lightnin' Jump
TTITLE16=Groundhogs - Down In The Bottom
TTITLE17=B.B.King - Three O'Clock Blues
TTITLE18=Mickey Baker - Blues Fell This Morning
TTITLE19=Stan Webb's Chicken Shack - He Knows The Rules
EXTD=
EXTT0=
EXTT1=
EXTT2=
EXTT3=
EXTT4=
EXTT5=
EXTT6=
EXTT7=
EXTT8=
EXTT9=
EXTT10=
EXTT11=
EXTT12=
EXTT13=
EXTT14=
EXTT15=
EXTT16=
EXTT17=
EXTT18=
EXTT19=
PLAYORDER=
